<svg id="Layer_1" data-name="Layer 1" xmlns="http://www.w3.org/2000/svg" viewBox="0 0 1500 1000"><defs><style>.cls-1{fill:#00853f;}.cls-2{fill:#fdef42;}.cls-3{fill:#e31b23;}</style></defs><rect class="cls-1" width="1500" height="1000"/><rect class="cls-2" x="500" width="1000" height="1000"/><rect class="cls-3" x="1000" width="500" height="1000"/><g id="c"><path id="t" class="cls-1" d="M750,333.33,698.5,491.84l79.25,25.75Z"/><path id="t-2" data-name="t" class="cls-1" d="M750,333.33l51.5,158.51-79.25,25.75Z"/></g><g id="c-2" data-name="c"><path id="t-3" data-name="t" class="cls-1" d="M908.51,448.5H741.84v83.33Z"/><path id="t-4" data-name="t" class="cls-1" d="M908.51,448.5l-134.84,98-49-67.42Z"/></g><g id="c-3" data-name="c"><path id="t-5" data-name="t" class="cls-1" d="M848,634.84l-51.5-158.51-79.25,25.75Z"/><path id="t-6" data-name="t" class="cls-1" d="M848,634.84l-134.83-98,49-67.42Z"/></g><g id="c-4" data-name="c"><path id="t-7" data-name="t" class="cls-1" d="M652,634.84l134.83-98-49-67.42Z"/><path id="t-8" data-name="t" class="cls-1" d="M652,634.84l51.5-158.51,79.25,25.75Z"/></g><g id="c-5" data-name="c"><path id="t-9" data-name="t" class="cls-1" d="M591.49,448.5l134.84,98,49-67.42Z"/><path id="t-10" data-name="t" class="cls-1" d="M591.49,448.5H758.16v83.33Z"/></g><rect class="cls-1" width="1500" height="1000"/><rect class="cls-2" x="500" width="1000" height="1000"/><rect class="cls-3" x="1000" width="500" height="1000"/><g id="c-6" data-name="c"><path id="t-11" data-name="t" class="cls-1" d="M750,333.33,698.5,491.84l79.25,25.75Z"/><path id="t-12" data-name="t" class="cls-1" d="M750,333.33l51.5,158.51-79.25,25.75Z"/></g><g id="c-7" data-name="c"><path id="t-13" data-name="t" class="cls-1" d="M908.51,448.5H741.84v83.33Z"/><path id="t-14" data-name="t" class="cls-1" d="M908.51,448.5l-134.84,98-49-67.42Z"/></g><g id="c-8" data-name="c"><path id="t-15" data-name="t" class="cls-1" d="M848,634.84l-51.5-158.51-79.25,25.75Z"/><path id="t-16" data-name="t" class="cls-1" d="M848,634.84l-134.83-98,49-67.42Z"/></g><g id="c-9" data-name="c"><path id="t-17" data-name="t" class="cls-1" d="M652,634.84l134.83-98-49-67.42Z"/><path id="t-18" data-name="t" class="cls-1" d="M652,634.84l51.5-158.51,79.25,25.75Z"/></g><g id="c-10" data-name="c"><path id="t-19" data-name="t" class="cls-1" d="M591.49,448.5l134.84,98,49-67.42Z"/><path id="t-20" data-name="t" class="cls-1" d="M591.49,448.5H758.16v83.33Z"/></g></svg>